# Blender v2.92.0 OBJ File: 'tank.blend'
# www.blender.org
mtllib canon.mtl
o Cube.001_Cube
v 1.120066 1.888888 0.515334
v 1.332854 1.135121 0.515334
v 1.184128 1.888888 -1.145512
v 1.120066 1.888888 0.515334
v 1.448051 1.135121 -1.145512
v 1.527607 1.455755 -1.145512
v 1.385888 1.455755 0.539518
v 1.120066 1.888888 -1.737938
v 1.184128 1.888888 -0.077092
v 1.184128 1.888888 -1.145512
v 1.120066 1.888888 -1.737938
v 0.948955 1.455755 0.729196
v 0.843932 1.726018 0.650371
v 0.835996 1.262626 0.731090
v 0.257111 1.641710 0.830843
v 0.216210 1.748886 0.829329
v 0.213119 1.565122 0.830866
v 0.244809 1.665550 3.906168
v 0.227506 1.706416 3.905590
v 0.226199 1.636347 3.906177
v 0.253506 1.660822 3.911278
v 0.216744 1.762260 3.910437
v 0.213966 1.619332 3.911292
v 0.254832 1.660821 4.008499
v 0.218070 1.762259 4.007657
v 0.215292 1.619332 4.008512
v 0.210417 1.668713 3.993923
v 0.196672 1.713334 3.993608
v 0.195633 1.658130 3.993928
v 0.210417 1.668713 3.938060
v 0.196672 1.713334 3.937745
v 0.195633 1.658130 3.938065
v 0.297383 2.053747 0.368884
v 1.332854 1.135121 -1.737938
v 0.310338 2.053747 0.022600
v 0.242380 2.185994 0.242465
v 1.385888 1.455755 -1.829183
v 0.250473 2.185994 0.022600
v 0.222446 1.609832 3.959902
v 0.274520 1.658163 3.959889
v 0.226104 1.776327 3.959047
v 0.544491 2.053747 0.615026
v 1.184128 1.888888 -1.145512
v 1.120066 1.888888 -1.737938
v 1.448051 1.135121 -0.077092
v 1.184128 1.888888 -0.077092
v 1.527607 1.455755 -0.077092
v 1.184128 1.888888 -0.077092
v 1.527607 1.455755 -0.077092
v 0.310338 2.053747 0.022600
v 1.332854 1.135121 0.515334
v 0.250473 2.185994 0.022600
v 1.385888 1.455755 0.539518
v 0.310338 2.053747 -1.045821
v 0.297383 2.053747 -1.392104
v 0.250473 2.185994 -1.045821
v 0.242380 2.185994 -1.265686
v 1.527607 1.455755 -0.077092
v 1.527607 1.455755 -1.145512
v 1.385888 1.455755 -1.829183
v 1.184128 1.888888 -0.077092
v 1.332854 1.135121 -1.737938
v 1.448051 1.135121 -1.145512
v 1.448051 1.135121 -0.077092
v 1.184128 1.888888 -0.077092
v 1.332854 1.135121 0.515334
v 1.385888 1.455755 0.539518
v 1.527607 1.455755 -0.077092
v 1.527607 1.455755 -1.145512
v 1.385888 1.455755 -1.829183
v 1.184128 1.888888 -0.077092
v 1.448051 1.135121 -0.077092
v 1.332854 1.135121 -1.737938
v 1.448051 1.135121 -1.145512
v 1.448051 1.135121 -0.077092
v -1.120066 1.888888 0.515334
v -1.332854 1.135121 0.515334
v -1.184128 1.888888 -1.145512
v -1.120066 1.888888 0.515334
v -1.448051 1.135121 -1.145512
v 0.000000 2.053747 -1.832320
v 0.000000 2.053747 0.725438
v 0.000000 1.135121 0.642763
v -1.527607 1.455755 -1.145512
v -1.385888 1.455755 0.539518
v -1.120066 1.888888 -1.737938
v -1.184128 1.888888 -0.077092
v 0.000000 1.135121 -1.932012
v -1.184128 1.888888 -1.145512
v 0.000000 1.455755 -2.053148
v -1.120066 1.888888 -1.737938
v -0.948955 1.455755 0.729196
v 0.000000 1.731043 3.905934
v -0.843932 1.726018 0.650371
v -0.835996 1.262626 0.731090
v 0.000000 1.813473 0.830231
v 0.000000 1.514559 0.830231
v -0.257111 1.641710 0.830843
v -0.216210 1.748886 0.829329
v -0.213119 1.565122 0.830866
v 0.000000 1.617067 3.905934
v 0.000000 1.760775 4.008159
v -0.244809 1.665550 3.906168
v -0.227506 1.706416 3.905590
v -0.226199 1.636347 3.906177
v 0.000000 1.760776 3.910938
v 0.000000 1.581555 3.910938
v 0.000000 1.714980 3.993796
v -0.253506 1.660822 3.911278
v -0.216744 1.762260 3.910437
v -0.213966 1.619332 3.911292
v 0.000000 1.581554 4.008159
v 0.000000 1.713641 3.594566
v -0.254832 1.660821 4.008499
v -0.218070 1.762259 4.007657
v -0.215292 1.619332 4.008512
v 0.000000 1.632177 3.993796
v -0.210417 1.668713 3.993923
v -0.196672 1.713334 3.993608
v -0.195633 1.658130 3.993928
v 0.000000 1.633517 3.594566
v 0.000000 1.668713 3.577818
v -0.210417 1.668713 3.938060
v -0.196672 1.713334 3.937745
v -0.195633 1.658130 3.938065
v 0.000000 1.135121 -1.932012
v -0.297383 2.053747 0.368884
v -1.332854 1.135121 -1.737938
v 0.000000 2.053747 0.482323
v -0.310338 2.053747 0.022600
v -0.242380 2.185994 0.242465
v -1.385888 1.455755 -1.829183
v 0.000000 2.185994 0.314491
v -0.250473 2.185994 0.022600
v 0.000000 2.185994 0.022600
v -0.222446 1.609832 3.959902
v -0.274520 1.658163 3.959889
v -0.226104 1.776327 3.959047
v 0.000000 1.774598 3.959549
v 0.000000 1.565825 3.959549
v -0.544491 2.053747 0.615026
v -1.184128 1.888888 -1.145512
v -1.120066 1.888888 -1.737938
v -1.448051 1.135121 -0.077092
v 0.000000 1.135121 -1.932012
v -1.184128 1.888888 -0.077092
v -1.527607 1.455755 -0.077092
v -1.184128 1.888888 -0.077092
v -1.527607 1.455755 -0.077092
v -0.310338 2.053747 0.022600
v 0.000000 1.135121 0.642763
v -1.332854 1.135121 0.515334
v -0.250473 2.185994 0.022600
v -1.385888 1.455755 0.539518
v 0.000000 2.185994 0.022600
v -0.310338 2.053747 -1.045821
v -0.297383 2.053747 -1.392104
v 0.000000 2.053747 -1.505544
v -0.250473 2.185994 -1.045821
v -0.242380 2.185994 -1.265686
v 0.000000 2.185994 -1.337712
v 0.000000 2.185994 -1.045821
v -1.527607 1.455755 -0.077092
v -1.527607 1.455755 -1.145512
v -1.385888 1.455755 -1.829183
v -1.184128 1.888888 -0.077092
v -1.332854 1.135121 -1.737938
v -1.448051 1.135121 -1.145512
v -1.448051 1.135121 -0.077092
v -1.184128 1.888888 -0.077092
v 0.000000 1.299980 0.742455
v -1.332854 1.135121 0.515334
v 0.000000 1.027796 -1.145512
v -1.385888 1.455755 0.539518
v -1.527607 1.455755 -0.077092
v 0.000000 1.027796 -0.077092
v -1.527607 1.455755 -1.145512
v -1.385888 1.455755 -1.829183
v -1.184128 1.888888 -0.077092
v -1.448051 1.135121 -0.077092
v -1.332854 1.135121 -1.737938
v -1.448051 1.135121 -1.145512
v -1.448051 1.135121 -0.077092
v 0.000000 1.027796 -0.077092
vt 0.880000 0.480000
vt 0.733333 0.480000
vt 0.733333 0.426667
vt 0.880000 0.426667
vt 0.653333 0.560000
vt 0.653333 0.480000
vt 0.653333 0.480000
vt 0.653333 0.560000
vt 0.760000 0.400000
vt 0.653333 0.400000
vt 0.653333 0.333333
vt 0.760000 0.333333
vt 0.266667 0.260000
vt 0.466667 0.260000
vt 0.393333 0.340000
vt 0.266667 0.333333
vt 0.733333 0.426667
vt 0.880000 0.426667
vt 0.733333 0.426667
vt 0.733333 0.480000
vt 0.733333 0.480000
vt 0.733333 0.426667
vt 0.286667 0.980000
vt 0.293333 0.980000
vt 0.293333 0.980000
vt 0.286667 0.980000
vt 0.880000 0.480000
vt 0.733333 0.480000
vt 0.466667 0.426667
vt 0.466667 0.426667
vt 0.466667 0.426667
vt 0.466667 0.426667
vt 0.626667 0.426667
vt 0.626667 0.426667
vt 0.640000 0.560000
vt 0.640000 0.533333
vt 0.640000 0.486667
vt 0.640000 0.453333
vt 0.640000 0.426667
vt 0.653333 0.426667
vt 0.626667 0.440000
vt 0.613333 0.480000
vt 0.306667 0.973333
vt 0.280000 0.973333
vt 0.280000 0.960000
vt 0.306667 0.960000
vt 0.153333 0.966667
vt 0.166667 0.966667
vt 0.166667 0.946667
vt 0.153333 0.953333
vt 0.640000 0.553333
vt 0.640000 0.533333
vt 0.173333 0.973333
vt 0.160000 0.973333
vt 0.160000 0.966667
vt 0.180000 0.966667
vt 0.173333 0.980000
vt 0.173333 0.973333
vt 0.186667 0.973333
vt 0.180000 0.980000
vt 0.173333 0.980000
vt 0.173333 0.966667
vt 0.173333 0.953333
vt 0.173333 0.960000
vt 0.146667 0.980000
vt 0.166667 0.980000
vt 0.166667 0.966667
vt 0.146667 0.966667
vt 0.206667 0.333333
vt 0.206667 0.400000
vt 0.133333 0.400000
vt 0.133333 0.333333
vt 0.206667 0.440000
vt 0.206667 0.486667
vt 0.133333 0.486667
vt 0.133333 0.440000
vt 0.160000 0.980000
vt 0.160000 0.980000
vt 0.560000 0.600000
vt 0.520000 0.600000
vt 0.520000 0.560000
vt 0.560000 0.560000
vt 0.520000 0.600000
vt 0.466667 0.600000
vt 0.466667 0.560000
vt 0.520000 0.560000
vt 0.206667 0.460000
vt 0.206667 0.520000
vt 0.133333 0.520000
vt 0.133333 0.460000
vt 0.206667 0.400000
vt 0.133333 0.400000
vt 0.106667 0.946667
vt 0.086667 0.940000
vt 0.086667 0.966667
vt 0.106667 0.973333
vt 0.106667 0.953333
vt 0.113333 0.946667
vt 0.113333 0.973333
vt 0.106667 0.980000
vt 0.520000 0.600000
vt 0.466667 0.600000
vt 0.466667 0.560000
vt 0.520000 0.560000
vt 0.520000 0.600000
vt 0.466667 0.600000
vt 0.466667 0.560000
vt 0.520000 0.560000
vt 0.053333 0.973333
vt 0.026667 0.980000
vt 0.026667 0.980000
vt 0.046667 0.980000
vt 0.026667 0.966667
vt 0.046667 0.966667
vt 0.086667 0.960000
vt 0.086667 0.980000
vt 0.346667 0.380000
vt 0.266667 0.373333
vt 0.393333 0.426667
vt 0.466667 0.426667
vt 0.393333 0.426667
vt 0.346667 0.440000
vt 0.346667 0.440000
vt 0.266667 0.440000
vt 0.266667 0.440000
vt 0.286667 0.966667
vt 0.286667 0.966667
vt 0.286667 0.966667
vt 0.286667 0.966667
vt 0.286667 0.966667
vt 0.286667 0.966667
vt 0.626667 0.486667
vt 0.626667 0.533333
vt 0.626667 0.533333
vt 0.626667 0.486667
vt 0.266667 0.333333
vt 0.266667 0.400000
vt 0.266667 0.440000
vt 0.266667 0.486667
vt 0.266667 0.460000
vt 0.266667 0.526667
vt 0.206667 0.526667
vt 0.266667 0.400000
vt 0.653333 0.400000
vt 0.653333 0.333333
vt 0.393333 0.426667
vt 0.346667 0.440000
vt 0.266667 0.440000
vt 0.466667 0.260000
vt 0.466667 0.426667
vt 0.466667 0.600000
vt 0.393333 0.526667
vt 0.293333 0.980000
vt 0.286667 0.980000
vt 0.346667 0.500000
vt 0.266667 0.600000
vt 0.266667 0.533333
vt 0.266667 0.493333
vt 0.640000 0.426667
vt 0.653333 0.426667
vt 0.466667 0.600000
vt 0.153333 0.953333
vt 0.153333 0.973333
vt 0.173333 0.973333
vt 0.173333 0.953333
vt 0.733333 0.560000
vt 0.613333 0.560000
vt 0.613333 0.480000
vt 0.733333 0.480000
vt 0.153333 0.973333
vt 0.153333 0.986667
vt 0.173333 0.986667
vt 0.173333 0.973333
vt 0.613333 0.426667
vt 0.733333 0.426667
vt 0.733333 0.426667
vt 0.733333 0.480000
vt 0.733333 0.560000
vt 0.153333 0.973333
vt 0.173333 0.973333
vt 0.733333 0.480000
vt 0.733333 0.560000
vt 0.880000 0.560000
vt 0.880000 0.480000
vt 0.880000 0.480000
vt 0.880000 0.426667
vt 0.733333 0.426667
vt 0.733333 0.480000
vt 0.653333 0.560000
vt 0.653333 0.560000
vt 0.653333 0.480000
vt 0.653333 0.480000
vt 0.653333 0.333333
vt 0.653333 0.400000
vt 0.393333 0.340000
vt 0.466667 0.260000
vt 0.880000 0.426667
vt 0.733333 0.426667
vt 0.733333 0.426667
vt 0.733333 0.426667
vt 0.733333 0.480000
vt 0.733333 0.480000
vt 0.293333 0.980000
vt 0.293333 0.980000
vt 0.733333 0.480000
vt 0.880000 0.480000
vt 0.466667 0.426667
vt 0.466667 0.426667
vt 0.466667 0.426667
vt 0.466667 0.426667
vt 0.626667 0.426667
vt 0.626667 0.426667
vt 0.640000 0.533333
vt 0.640000 0.486667
vt 0.640000 0.453333
vt 0.626667 0.440000
vt 0.653333 0.426667
vt 0.613333 0.480000
vt 0.306667 0.973333
vt 0.306667 0.960000
vt 0.153333 0.966667
vt 0.153333 0.953333
vt 0.166667 0.946667
vt 0.166667 0.966667
vt 0.640000 0.533333
vt 0.173333 0.973333
vt 0.180000 0.966667
vt 0.173333 0.980000
vt 0.180000 0.980000
vt 0.186667 0.973333
vt 0.173333 0.973333
vt 0.173333 0.980000
vt 0.173333 0.960000
vt 0.173333 0.953333
vt 0.173333 0.966667
vt 0.166667 0.966667
vt 0.166667 0.980000
vt 0.206667 0.333333
vt 0.133333 0.333333
vt 0.206667 0.440000
vt 0.133333 0.440000
vt 0.133333 0.486667
vt 0.206667 0.486667
vt 0.560000 0.600000
vt 0.560000 0.560000
vt 0.520000 0.600000
vt 0.520000 0.560000
vt 0.466667 0.560000
vt 0.466667 0.600000
vt 0.206667 0.460000
vt 0.133333 0.460000
vt 0.133333 0.520000
vt 0.206667 0.520000
vt 0.106667 0.946667
vt 0.106667 0.973333
vt 0.106667 0.953333
vt 0.106667 0.980000
vt 0.113333 0.973333
vt 0.113333 0.946667
vt 0.520000 0.600000
vt 0.520000 0.560000
vt 0.466667 0.560000
vt 0.466667 0.600000
vt 0.466667 0.560000
vt 0.466667 0.600000
vt 0.053333 0.973333
vt 0.046667 0.980000
vt 0.046667 0.966667
vt 0.346667 0.380000
vt 0.393333 0.426667
vt 0.393333 0.426667
vt 0.466667 0.426667
vt 0.346667 0.440000
vt 0.346667 0.440000
vt 0.286667 0.966667
vt 0.286667 0.966667
vt 0.286667 0.966667
vt 0.286667 0.966667
vt 0.626667 0.486667
vt 0.626667 0.486667
vt 0.626667 0.533333
vt 0.626667 0.533333
vt 0.266667 0.333333
vt 0.266667 0.440000
vt 0.266667 0.486667
vt 0.266667 0.460000
vt 0.206667 0.526667
vt 0.266667 0.526667
vt 0.653333 0.333333
vt 0.653333 0.400000
vt 0.346667 0.440000
vt 0.393333 0.426667
vt 0.466667 0.426667
vt 0.466667 0.260000
vt 0.393333 0.526667
vt 0.466667 0.600000
vt 0.293333 0.980000
vt 0.346667 0.500000
vt 0.653333 0.426667
vt 0.466667 0.600000
vt 0.173333 0.953333
vt 0.173333 0.973333
vt 0.733333 0.560000
vt 0.733333 0.480000
vt 0.613333 0.480000
vt 0.613333 0.560000
vt 0.173333 0.973333
vt 0.173333 0.986667
vt 0.733333 0.426667
vt 0.613333 0.426667
vt 0.733333 0.480000
vt 0.733333 0.426667
vt 0.733333 0.560000
vt 0.173333 0.973333
vt 0.733333 0.560000
vt 0.733333 0.480000
vt 0.880000 0.560000
vt 0.880000 0.480000
vn 0.9552 -0.2249 -0.1923
vn -0.2197 -0.1883 -0.9572
vn 0.1401 0.3197 -0.9371
vn 0.1412 0.9829 0.1178
vn 0.0000 0.0000 1.0000
vn 0.1439 -0.3218 -0.9358
vn 0.2235 0.3690 0.9022
vn 0.3668 0.3890 0.8450
vn 0.3082 0.2405 0.9204
vn 0.3886 -0.2185 0.8951
vn 0.0576 -0.7957 0.6030
vn 0.3666 -0.1301 0.9212
vn 0.1971 0.9802 0.0195
vn 0.8606 -0.5092 0.0078
vn 0.2305 0.4563 0.8595
vn 0.0041 0.1149 -0.9934
vn 0.5235 -0.4309 -0.7351
vn 0.9307 0.3659 0.0013
vn 0.1569 -0.9872 0.0276
vn -0.0063 0.9613 0.2753
vn 0.6737 -0.6871 0.2719
vn 0.5076 0.1845 -0.8416
vn 0.0266 -0.1951 -0.9804
vn 0.0015 -0.2876 0.9577
vn -0.2421 0.2528 0.9367
vn 0.8902 0.3475 0.2946
vn 0.1770 -0.9494 0.2594
vn -0.0075 -1.0000 0.0029
vn -0.5821 0.8131 0.0000
vn -0.3382 -0.1096 0.9347
vn -0.0474 0.2982 0.9533
vn -0.7930 0.4182 0.4429
vn -0.8445 -0.2193 0.4886
vn -0.9557 -0.2944 0.0000
vn -0.1307 0.9914 0.0029
vn 0.2165 0.7459 0.6300
vn 0.1903 0.9816 0.0156
vn 0.0000 1.0000 0.0000
vn 0.9107 0.4117 0.0339
vn -0.0106 -0.3964 0.9180
vn 0.1268 -0.0668 0.9897
vn 0.2428 0.2909 0.9254
vn -0.0076 0.9614 -0.2751
vn 0.6702 -0.6837 -0.2888
vn 0.8852 0.3409 -0.3166
vn 0.1782 -0.9486 -0.2617
vn 0.9706 -0.2408 0.0000
vn 0.9110 0.4124 0.0000
vn 0.1854 0.9827 0.0000
vn -0.2801 -0.9595 -0.0303
vn 0.1869 0.9823 -0.0153
vn 0.9107 0.4117 -0.0339
vn 0.1276 0.9881 -0.0862
vn 0.2165 0.7459 -0.6300
vn -0.0049 -0.9820 0.1889
vn 0.8083 0.5724 0.1376
vn 0.0441 -0.9957 -0.0812
vn 0.9573 -0.2056 0.2034
vn 0.7835 0.6214 0.0000
vn 0.0739 -0.9973 0.0000
vn 0.8045 0.5796 -0.1297
vn -0.9552 -0.2249 -0.1923
vn 0.2197 -0.1883 -0.9572
vn -0.1401 0.3197 -0.9371
vn -0.1412 0.9829 0.1178
vn -0.1439 -0.3218 -0.9358
vn -0.2235 0.3690 0.9022
vn -0.3668 0.3890 0.8450
vn -0.3082 0.2405 0.9204
vn -0.3886 -0.2185 0.8951
vn -0.0576 -0.7957 0.6030
vn -0.3666 -0.1301 0.9212
vn -0.1971 0.9802 0.0195
vn -0.8606 -0.5092 0.0078
vn -0.2305 0.4563 0.8595
vn -0.0041 0.1149 -0.9934
vn -0.5235 -0.4309 -0.7351
vn -0.9307 0.3659 0.0013
vn -0.1569 -0.9872 0.0276
vn 0.0063 0.9613 0.2753
vn -0.6737 -0.6871 0.2719
vn -0.5076 0.1845 -0.8416
vn -0.0266 -0.1951 -0.9804
vn -0.0015 -0.2876 0.9577
vn 0.2421 0.2528 0.9367
vn -0.8902 0.3475 0.2946
vn -0.1770 -0.9494 0.2594
vn 0.0075 -1.0000 0.0029
vn 0.5821 0.8131 0.0000
vn 0.3382 -0.1096 0.9347
vn 0.0474 0.2982 0.9533
vn 0.7930 0.4182 0.4429
vn 0.8445 -0.2193 0.4886
vn 0.9557 -0.2944 0.0000
vn 0.1307 0.9914 0.0029
vn -0.2165 0.7459 0.6300
vn -0.1903 0.9816 0.0156
vn -0.9107 0.4117 0.0339
vn 0.0106 -0.3964 0.9180
vn -0.1268 -0.0668 0.9897
vn -0.2428 0.2909 0.9254
vn 0.0076 0.9614 -0.2751
vn -0.6702 -0.6837 -0.2888
vn -0.8852 0.3409 -0.3166
vn -0.1782 -0.9486 -0.2617
vn -0.9706 -0.2408 0.0000
vn -0.9110 0.4124 0.0000
vn -0.1854 0.9827 0.0000
vn 0.2801 -0.9595 -0.0303
vn -0.1869 0.9823 -0.0153
vn -0.9107 0.4117 -0.0339
vn -0.1276 0.9881 -0.0862
vn -0.2165 0.7459 -0.6300
vn 0.0049 -0.9820 0.1889
vn -0.8083 0.5724 0.1376
vn -0.0441 -0.9957 -0.0812
vn -0.9573 -0.2056 0.2034
vn -0.7835 0.6214 0.0000
vn -0.0739 -0.9973 0.0000
vn -0.8045 0.5796 -0.1297
usemtl Material
s off
f 37/1/1 6/2/1 5/3/1 34/4/1
f 4/5/2 7/6/2 53/7/2 42/8/2
f 81/9/3 8/10/3 37/11/3 90/12/3
f 82/13/4 4/14/4 33/15/4 129/16/4
f 34/4/5 5/3/5 63/17/5 62/18/5
f 45/19/5 47/20/5 58/21/5 64/22/5
f 90/23/6 37/24/6 34/25/6 126/26/6
f 6/2/5 37/1/5 60/27/5 59/28/5
f 3/29/5 48/30/5 61/31/5 43/32/5
f 7/6/5 2/33/5 51/34/5 53/7/5
f 4/5/7 82/35/7 13/36/7
f 12/37/8 7/6/8 13/36/8
f 7/6/9 4/5/9 13/36/9
f 7/6/10 12/37/10 14/38/10
f 83/39/11 2/40/11 14/41/11
f 2/33/12 7/6/12 14/42/12
f 16/43/13 96/44/13 93/45/13 19/46/13
f 17/47/14 15/48/14 18/49/14 20/50/14
f 13/36/15 82/35/15 96/51/15 16/52/15
f 19/53/16 93/54/16 106/55/16 22/56/16
f 20/57/17 18/58/17 21/59/17 23/60/17
f 15/61/18 16/62/18 19/63/18 18/64/18
f 97/65/19 17/66/19 20/67/19 101/68/19
f 41/69/20 139/70/20 102/71/20 25/72/20
f 39/73/21 40/74/21 24/75/21 26/76/21
f 18/58/22 19/53/22 22/56/22 21/59/22
f 101/77/23 20/57/23 23/60/23 107/78/23
f 25/79/24 102/80/24 108/81/24 28/82/24
f 26/83/25 24/84/25 27/85/25 29/86/25
f 40/87/26 41/88/26 25/89/26 24/90/26
f 140/91/27 39/73/27 26/76/27 112/92/27
f 28/93/28 108/94/28 113/95/28 31/96/28
f 29/97/29 27/98/29 30/99/29 32/100/29
f 24/101/30 25/102/30 28/103/30 27/104/30
f 112/105/31 26/106/31 29/107/31 117/108/31
f 30/109/32 122/110/32 121/111/32 32/112/32
f 113/113/33 122/110/33 30/109/33 31/114/33
f 27/98/34 28/93/34 31/96/34 30/99/34
f 117/115/35 29/97/35 32/100/35 121/116/35
f 129/16/36 33/15/36 36/117/36 133/118/36
f 35/119/5 9/120/5 48/30/5 50/121/5
f 4/14/37 9/120/37 35/119/37 33/15/37
f 47/20/5 6/2/5 59/28/5 58/21/5
f 38/122/5 35/119/5 50/121/5 52/123/5
f 36/117/38 38/122/38 135/124/38 133/118/38
f 33/15/39 35/119/39 38/122/39 36/117/39
f 135/124/5 38/122/5 52/123/5 155/125/5
f 83/126/40 14/127/40 17/128/40 97/129/40
f 14/127/41 12/130/41 15/131/41 17/128/41
f 12/132/42 13/133/42 16/134/42 15/135/42
f 22/136/43 106/137/43 139/70/43 41/69/43
f 23/138/44 21/139/44 40/74/44 39/73/44
f 21/140/45 22/141/45 41/142/45 40/87/45
f 107/143/46 23/138/46 39/73/46 140/91/46
f 47/20/47 45/19/47 5/3/47 6/2/47
f 37/11/5 8/10/5 44/144/5 60/145/5
f 52/123/48 50/121/48 54/146/48 56/147/48
f 50/121/49 48/30/49 3/29/49 54/146/49
f 155/125/38 52/123/38 56/147/38 162/148/38
f 9/120/50 4/14/50 42/149/50 46/150/50
f 3/29/51 8/151/51 55/152/51 54/146/51
f 126/26/5 34/25/5 62/153/5 145/154/5
f 54/146/52 55/152/52 57/155/52 56/147/52
f 8/151/53 81/156/53 158/157/53 55/152/53
f 56/147/38 57/155/38 161/158/38 162/148/38
f 55/152/54 158/157/54 161/158/54 57/155/54
f 2/40/5 83/39/5 151/159/5 51/160/5
f 48/30/5 9/120/5 46/150/5 61/31/5
f 5/3/5 45/19/5 64/22/5 63/17/5
f 8/151/5 3/29/5 43/32/5 44/161/5
f 171/162/55 176/163/55 72/164/55 66/165/55
f 65/166/56 1/167/56 67/168/56 49/169/56
f 173/170/57 88/171/57 73/172/57 74/173/57
f 49/169/58 67/168/58 66/174/58 72/175/58
f 49/169/5 72/175/5 75/176/5 68/177/5
f 65/166/5 49/169/5 68/177/5 71/178/5
f 72/164/5 176/163/5 184/179/5 75/180/5
f 71/178/59 68/177/59 69/181/59 10/182/59
f 75/180/60 184/179/60 173/170/60 74/173/60
f 11/183/61 10/182/61 69/181/61 70/184/61
f 132/185/62 128/186/62 80/187/62 84/188/62
f 79/189/63 141/190/63 154/191/63 85/192/63
f 81/9/64 90/12/64 132/193/64 86/194/64
f 82/13/65 129/16/65 127/195/65 79/196/65
f 128/186/5 167/197/5 168/198/5 80/187/5
f 144/199/5 169/200/5 163/201/5 147/202/5
f 90/23/66 126/26/66 128/203/66 132/204/66
f 84/188/5 164/205/5 165/206/5 132/185/5
f 78/207/5 142/208/5 166/209/5 148/210/5
f 85/192/5 154/191/5 152/211/5 77/212/5
f 79/189/67 94/213/67 82/35/67
f 92/214/68 94/213/68 85/192/68
f 85/192/69 94/213/69 79/189/69
f 85/192/70 95/215/70 92/214/70
f 83/39/71 95/216/71 77/217/71
f 77/212/72 95/218/72 85/192/72
f 99/219/73 104/220/73 93/45/73 96/44/73
f 100/221/74 105/222/74 103/223/74 98/224/74
f 94/213/75 99/225/75 96/51/75 82/35/75
f 104/226/76 110/227/76 106/55/76 93/54/76
f 105/228/77 111/229/77 109/230/77 103/231/77
f 98/232/78 103/233/78 104/234/78 99/235/78
f 97/65/79 101/68/79 105/236/79 100/237/79
f 138/238/80 115/239/80 102/71/80 139/70/80
f 136/240/81 116/241/81 114/242/81 137/243/81
f 103/231/82 109/230/82 110/227/82 104/226/82
f 101/77/83 107/78/83 111/229/83 105/228/83
f 115/244/84 119/245/84 108/81/84 102/80/84
f 116/246/85 120/247/85 118/248/85 114/249/85
f 137/250/86 114/251/86 115/252/86 138/253/86
f 140/91/87 112/92/87 116/241/87 136/240/87
f 119/254/88 124/255/88 113/95/88 108/94/88
f 120/256/89 125/257/89 123/258/89 118/259/89
f 114/260/90 118/261/90 119/262/90 115/263/90
f 112/105/91 117/108/91 120/264/91 116/265/91
f 123/266/92 125/267/92 121/111/92 122/110/92
f 113/113/93 124/268/93 123/266/93 122/110/93
f 118/259/94 123/258/94 124/255/94 119/254/94
f 117/115/95 121/116/95 125/257/95 120/256/95
f 129/16/96 133/118/96 131/269/96 127/195/96
f 130/270/5 150/271/5 148/210/5 87/272/5
f 79/196/97 127/195/97 130/270/97 87/272/97
f 147/202/5 163/201/5 164/205/5 84/188/5
f 134/273/5 153/274/5 150/271/5 130/270/5
f 131/269/38 133/118/38 135/124/38 134/273/38
f 127/195/98 131/269/98 134/273/98 130/270/98
f 135/124/5 155/125/5 153/274/5 134/273/5
f 83/126/99 97/129/99 100/275/99 95/276/99
f 95/276/100 100/275/100 98/277/100 92/278/100
f 92/279/101 98/280/101 99/281/101 94/282/101
f 110/283/102 138/238/102 139/70/102 106/137/102
f 111/284/103 136/240/103 137/243/103 109/285/103
f 109/286/104 137/250/104 138/287/104 110/288/104
f 107/143/105 140/91/105 136/240/105 111/284/105
f 147/202/106 84/188/106 80/187/106 144/199/106
f 132/193/5 165/289/5 143/290/5 86/194/5
f 153/274/107 159/291/107 156/292/107 150/271/107
f 150/271/108 156/292/108 78/207/108 148/210/108
f 155/125/38 162/148/38 159/291/38 153/274/38
f 87/272/109 146/293/109 141/294/109 79/196/109
f 78/207/110 156/292/110 157/295/110 86/296/110
f 126/26/5 145/154/5 167/297/5 128/203/5
f 156/292/111 159/291/111 160/298/111 157/295/111
f 86/296/112 157/295/112 158/157/112 81/156/112
f 159/291/38 162/148/38 161/158/38 160/298/38
f 157/295/113 160/298/113 161/158/113 158/157/113
f 77/217/5 152/299/5 151/159/5 83/39/5
f 148/210/5 166/209/5 146/293/5 87/272/5
f 80/187/5 168/198/5 169/200/5 144/199/5
f 86/296/5 143/300/5 142/208/5 78/207/5
f 171/162/114 172/301/114 180/302/114 176/163/114
f 170/303/115 149/304/115 174/305/115 76/306/115
f 173/170/116 182/307/116 181/308/116 88/171/116
f 149/304/117 180/309/117 172/310/117 174/305/117
f 149/304/5 175/311/5 183/312/5 180/309/5
f 170/303/5 179/313/5 175/311/5 149/304/5
f 180/302/5 183/314/5 184/179/5 176/163/5
f 179/313/118 89/315/118 177/316/118 175/311/118
f 183/314/119 182/307/119 173/170/119 184/179/119
f 91/317/120 178/318/120 177/316/120 89/315/120
